<svg xmlns="http://www.w3.org/2000/svg" width="500" height="400" viewBox="0 0 500 400">
  <rect width="500" height="400" fill="#e8f5e9"/>
  <circle cx="250" cy="200" r="80" fill="#4a7c43" opacity="0.3"/>
  <path d="M250 120 Q200 180 180 220 Q160 260 200 280 Q240 300 250 280 Q260 300 300 280 Q340 260 320 220 Q300 180 250 120" fill="#2d5a27" opacity="0.6"/>
  <path d="M250 140 Q220 190 200 220 Q180 250 210 265 Q240 280 250 260 Q260 280 290 265 Q320 250 300 220 Q280 190 250 140" fill="#8bc34a" opacity="0.8"/>
  <text x="250" y="350" text-anchor="middle" font-family="Arial" font-size="18" fill="#2d5a27">Planta en mano</text>
</svg>